<svg xmlns="http://www.w3.org/2000/svg" version="1.1" xmlns:xlink="http://www.w3.org/1999/xlink" width="1000" height="1000"><style>
    #light-icon {
      display: inline;
    }
    #dark-icon {
      display: none;
    }

    @media (prefers-color-scheme: dark) {
      #light-icon {
        display: none;
      }
      #dark-icon {
        display: inline;
      }
    }
  </style><g id="light-icon"><svg xmlns="http://www.w3.org/2000/svg" version="1.1" xmlns:xlink="http://www.w3.org/1999/xlink" width="1000" height="1000"><g><g transform="matrix(1.7683465959328029,0,0,1.7683465959328029,0.6631299734747813,0)"><svg xmlns="http://www.w3.org/2000/svg" version="1.1" xmlns:xlink="http://www.w3.org/1999/xlink" width="564.75" height="565.5"><svg id="Layer_1" data-name="Layer 1" xmlns="http://www.w3.org/2000/svg" viewBox="0 0 564.75 565.5">
  <defs>
    <style>
      .cls-1 {
        fill: #010101;
      }
    </style>
  </defs>
  <path class="cls-1" d="M431.72,191.12c-1.29,0-2.5.51-3.41,1.43l-20.67,20.99,6.76,6.76,20.72-21.05c.9-.91,1.38-2.11,1.37-3.39s-.52-2.47-1.43-3.37c-.9-.89-2.09-1.37-3.35-1.37Z"></path>
  <path class="cls-1" d="M376.94,142.31c.9-.91,1.38-2.11,1.37-3.39s-.52-2.47-1.43-3.37c-.9-.89-2.09-1.37-3.35-1.37s-2.5.51-3.41,1.43l-20.67,20.99,6.76,6.76,20.72-21.05Z"></path>
  <polygon class="cls-1" points="223.64 300 233.2 309.55 258.41 301.54 268.27 311.38 261 337.32 270.74 347.06 281.71 307.87 261.73 287.88 223.64 300"></polygon>
  <path class="cls-1" d="M282.38,6.73C129.84,6.73,6.18,130.31,6.18,282.76c0,85.42,38.83,161.79,99.82,212.41,4.31-43.84,30.08-83.01,57.17-108.39l-6.96-6.91c-2.1-2.07-2.14-5.44-.1-7.56,1.07-1.11,2.36-2.44,3.85-3.96l43.96,43.58c-1.32,1.3-2.54,2.5-3.59,3.53-2.12,2.09-5.52,2.07-7.61-.05l-6.29-6.34c-33.76,33.15-50.76,70.26-49.44,108.41,42.23,26.18,92.04,41.3,145.39,41.3,152.53,0,276.19-123.58,276.19-276.02S434.91,6.73,282.38,6.73ZM365.57,128.83c4.95-5.03,13.04-5.09,18.07-.14h0c5.03,4.95,5.09,13.04.14,18.07l-57.06,57.93-18.21-17.93,57.06-57.93ZM208.9,407l-44.03-43.65c2.06-2.08,4.34-4.36,6.81-6.8l44.07,43.68c-2.18,2.16-4.54,4.5-6.84,6.77ZM224.27,391.73c-.74.76-1.99,2.01-3.57,3.58l-44.04-43.66c.49-.48.98-.95,1.47-1.44,1.98-1.93,3.75-3.67,5.38-5.31l43.93,43.54c-1.27,1.29-2.33,2.43-3.17,3.29ZM287.97,325.36c-2.8,9.26-6.28,20.77-6.23,31.93.02,5.05.75,9.58,2.08,13.53-9.72-.15-19.64-.26-27.89,1.12-9.96,1.67-17.77,6.85-23.39,11.7l-44.22-43.83c5.61-6.35,8.63-11.7,11.18-20.68,2.44-8.59,1.87-19.87,1.11-29.81,6.1,1.3,13.37,1.33,21.9-.73,15.75-3.81,29.65-8.43,40.82-12.14,3.44-1.14,6.69-2.22,9.83-3.23,14.05-4.49,19.32-5.71,23.26-1.79,5.27,5.25,3.88,10.89.51,22.12l-.08.27c-2.55,8.48-4.54,15.63-6.47,23.17-.63,2.5-1.5,5.35-2.41,8.37ZM322.04,365.04c-4.65,4.55-14.01,5.66-24.9,5.84-2.92-4.31-3.39-10.39-3.4-13.65-.04-9.36,3.02-19.48,5.72-28.41.95-3.15,1.85-6.13,2.55-8.88,1.88-7.37,3.83-14.37,6.33-22.68l.08-.27c3.47-11.56,7.06-23.52-3.53-34.08-9.45-9.42-21.47-5.58-35.45-1.11-3.11.99-6.41,2.09-9.9,3.25-11.52,3.83-24.58,8.17-39.85,11.86-8.66,2.09-15.15,1.49-19.97-.24-.02-.57-.05-1.14-.06-1.68-.1-5.48-1.23-20.22,9.85-31.4,1.65-1.67,4.29-4.3,7.52-7.5l20.72,20.66c.68.68,1.58,1.02,2.47,1.02s1.79-.34,2.48-1.03c1.37-1.37,1.36-3.58,0-4.95l-20.69-20.64c1.66-1.64,3.4-3.36,5.18-5.13l20.67,20.62c.68.68,1.58,1.02,2.47,1.02s1.79-.34,2.48-1.03c1.37-1.37,1.36-3.58,0-4.95l-20.64-20.58c1.69-1.67,3.4-3.35,5.08-5.01l20.61,20.56c.68.68,1.58,1.02,2.47,1.02s1.79-.34,2.48-1.03c1.37-1.37,1.36-3.58,0-4.95l-20.57-20.52c9.61-9.47,17.46-17.2,17.46-17.2l116.68,116.66s-42.66,42.98-54.32,54.39ZM404.49,304.32l-5.35,5.35c-3.2,3.2-8.38,3.2-11.57,0l-126.53-126.53c-3.2-3.2-3.2-8.38,0-11.57l5.35-5.35c3.2-3.2,8.38-3.2,11.57,0l126.53,126.53c3.2,3.2,3.2,8.38,0,11.57ZM441.96,203.7l-57.57,58.45-18.21-17.93,57.57-58.45c4.95-5.03,13.04-5.09,18.07-.14h0c5.03,4.95,5.09,13.04.14,18.07Z"></path>
</svg></svg></g></g></svg></g><g id="dark-icon"><svg xmlns="http://www.w3.org/2000/svg" version="1.1" xmlns:xlink="http://www.w3.org/1999/xlink" width="1000" height="1000"><g clip-path="url(#SvgjsClipPath1009)"><rect width="1000" height="1000" fill="#ffffff"></rect><g transform="matrix(1.4146772767462423,0,0,1.4146772767462423,100.53050397877985,100)"><svg xmlns="http://www.w3.org/2000/svg" version="1.1" xmlns:xlink="http://www.w3.org/1999/xlink" width="564.75" height="565.5"><svg id="Layer_1" data-name="Layer 1" xmlns="http://www.w3.org/2000/svg" viewBox="0 0 564.75 565.5">
  <defs>
    <style>
      .cls-1 {
        fill: #010101;
      }
    </style>
  <clipPath id="SvgjsClipPath1009"><rect width="1000" height="1000" x="0" y="0" rx="500" ry="500"></rect></clipPath></defs>
  <path class="cls-1" d="M431.72,191.12c-1.29,0-2.5.51-3.41,1.43l-20.67,20.99,6.76,6.76,20.72-21.05c.9-.91,1.38-2.11,1.37-3.39s-.52-2.47-1.43-3.37c-.9-.89-2.09-1.37-3.35-1.37Z"></path>
  <path class="cls-1" d="M376.94,142.31c.9-.91,1.38-2.11,1.37-3.39s-.52-2.47-1.43-3.37c-.9-.89-2.09-1.37-3.35-1.37s-2.5.51-3.41,1.43l-20.67,20.99,6.76,6.76,20.72-21.05Z"></path>
  <polygon class="cls-1" points="223.64 300 233.2 309.55 258.41 301.54 268.27 311.38 261 337.32 270.74 347.06 281.71 307.87 261.73 287.88 223.64 300"></polygon>
  <path class="cls-1" d="M282.38,6.73C129.84,6.73,6.18,130.31,6.18,282.76c0,85.42,38.83,161.79,99.82,212.41,4.31-43.84,30.08-83.01,57.17-108.39l-6.96-6.91c-2.1-2.07-2.14-5.44-.1-7.56,1.07-1.11,2.36-2.44,3.85-3.96l43.96,43.58c-1.32,1.3-2.54,2.5-3.59,3.53-2.12,2.09-5.52,2.07-7.61-.05l-6.29-6.34c-33.76,33.15-50.76,70.26-49.44,108.41,42.23,26.18,92.04,41.3,145.39,41.3,152.53,0,276.19-123.58,276.19-276.02S434.91,6.73,282.38,6.73ZM365.57,128.83c4.95-5.03,13.04-5.09,18.07-.14h0c5.03,4.95,5.09,13.04.14,18.07l-57.06,57.93-18.21-17.93,57.06-57.93ZM208.9,407l-44.03-43.65c2.06-2.08,4.34-4.36,6.81-6.8l44.07,43.68c-2.18,2.16-4.54,4.5-6.84,6.77ZM224.27,391.73c-.74.76-1.99,2.01-3.57,3.58l-44.04-43.66c.49-.48.98-.95,1.47-1.44,1.98-1.93,3.75-3.67,5.38-5.31l43.93,43.54c-1.27,1.29-2.33,2.43-3.17,3.29ZM287.97,325.36c-2.8,9.26-6.28,20.77-6.23,31.93.02,5.05.75,9.58,2.08,13.53-9.72-.15-19.64-.26-27.89,1.12-9.96,1.67-17.77,6.85-23.39,11.7l-44.22-43.83c5.61-6.35,8.63-11.7,11.18-20.68,2.44-8.59,1.87-19.87,1.11-29.81,6.1,1.3,13.37,1.33,21.9-.73,15.75-3.81,29.65-8.43,40.82-12.14,3.44-1.14,6.69-2.22,9.83-3.23,14.05-4.49,19.32-5.71,23.26-1.79,5.27,5.25,3.88,10.89.51,22.12l-.08.27c-2.55,8.48-4.54,15.63-6.47,23.17-.63,2.5-1.5,5.35-2.41,8.37ZM322.04,365.04c-4.65,4.55-14.01,5.66-24.9,5.84-2.92-4.31-3.39-10.39-3.4-13.65-.04-9.36,3.02-19.48,5.72-28.41.95-3.15,1.85-6.13,2.55-8.88,1.88-7.37,3.83-14.37,6.33-22.68l.08-.27c3.47-11.56,7.06-23.52-3.53-34.08-9.45-9.42-21.47-5.58-35.45-1.11-3.11.99-6.41,2.09-9.9,3.25-11.52,3.83-24.58,8.17-39.85,11.86-8.66,2.09-15.15,1.49-19.97-.24-.02-.57-.05-1.14-.06-1.68-.1-5.48-1.23-20.22,9.85-31.4,1.65-1.67,4.29-4.3,7.52-7.5l20.72,20.66c.68.68,1.58,1.02,2.47,1.02s1.79-.34,2.48-1.03c1.37-1.37,1.36-3.58,0-4.95l-20.69-20.64c1.66-1.64,3.4-3.36,5.18-5.13l20.67,20.62c.68.68,1.58,1.02,2.47,1.02s1.79-.34,2.48-1.03c1.37-1.37,1.36-3.58,0-4.95l-20.64-20.58c1.69-1.67,3.4-3.35,5.08-5.01l20.61,20.56c.68.68,1.58,1.02,2.47,1.02s1.79-.34,2.48-1.03c1.37-1.37,1.36-3.58,0-4.95l-20.57-20.52c9.61-9.47,17.46-17.2,17.46-17.2l116.68,116.66s-42.66,42.98-54.32,54.39ZM404.49,304.32l-5.35,5.35c-3.2,3.2-8.38,3.2-11.57,0l-126.53-126.53c-3.2-3.2-3.2-8.38,0-11.57l5.35-5.35c3.2-3.2,8.38-3.2,11.57,0l126.53,126.53c3.2,3.2,3.2,8.38,0,11.57ZM441.96,203.7l-57.57,58.45-18.21-17.93,57.57-58.45c4.95-5.03,13.04-5.09,18.07-.14h0c5.03,4.95,5.09,13.04.14,18.07Z"></path>
</svg></svg></g></g></svg></g></svg>