<svg xmlns="http://www.w3.org/2000/svg" xmlns:xlink="http://www.w3.org/1999/xlink" zoomAndPan="magnify" preserveAspectRatio="xMidYMid meet" version="1.0" viewBox="233.16 651.01 2408.63 322.76"><defs><g/><clipPath id="6d3b110501"><rect x="0" width="2073" y="0" height="332"/></clipPath></defs><path fill="#010101" d="M 478.429688 757.34375 C 477.6875 757.34375 476.988281 757.636719 476.464844 758.167969 L 464.550781 770.273438 L 468.445312 774.171875 L 480.390625 762.03125 C 480.90625 761.507812 481.183594 760.816406 481.179688 760.078125 C 481.171875 759.339844 480.878906 758.652344 480.355469 758.132812 C 479.835938 757.621094 479.148438 757.34375 478.421875 757.34375 Z M 478.429688 757.34375 " fill-opacity="1" fill-rule="nonzero"/><path fill="#010101" d="M 446.855469 729.195312 C 447.375 728.671875 447.652344 727.980469 447.644531 727.242188 C 447.640625 726.503906 447.347656 725.816406 446.820312 725.296875 C 446.304688 724.785156 445.617188 724.507812 444.890625 724.507812 C 444.164062 724.507812 443.449219 724.800781 442.925781 725.332031 L 431.011719 737.4375 L 434.90625 741.335938 L 446.851562 729.195312 Z M 446.855469 729.195312 " fill-opacity="1" fill-rule="nonzero"/><path fill="#010101" d="M 358.5 820.132812 L 364.011719 825.636719 L 378.539062 821.019531 L 384.222656 826.695312 L 380.03125 841.652344 L 385.648438 847.269531 L 391.96875 824.667969 L 380.453125 813.140625 Z M 358.5 820.132812 " fill-opacity="1" fill-rule="nonzero"/><path fill="#010101" d="M 392.355469 651.011719 C 304.4375 651.011719 233.164062 722.277344 233.164062 810.191406 C 233.164062 859.449219 255.542969 903.488281 290.695312 932.679688 C 293.179688 907.398438 308.035156 884.8125 323.648438 870.175781 L 319.636719 866.191406 C 318.425781 864.996094 318.402344 863.054688 319.578125 861.832031 C 320.195312 861.191406 320.9375 860.421875 321.796875 859.546875 L 347.132812 884.679688 C 346.375 885.429688 345.671875 886.121094 345.066406 886.714844 C 343.84375 887.917969 341.882812 887.90625 340.679688 886.683594 L 337.054688 883.027344 C 317.59375 902.144531 307.796875 923.546875 308.558594 945.546875 C 332.898438 960.644531 361.605469 969.363281 392.355469 969.363281 C 480.269531 969.363281 551.539062 898.097656 551.539062 810.191406 C 551.539062 722.28125 480.269531 651.011719 392.355469 651.011719 Z M 440.304688 721.421875 C 443.15625 718.523438 447.820312 718.488281 450.71875 721.339844 C 453.617188 724.195312 453.652344 728.863281 450.796875 731.761719 L 417.910156 765.167969 L 407.414062 754.828125 Z M 350.003906 881.835938 L 324.628906 856.664062 C 325.8125 855.464844 327.128906 854.148438 328.550781 852.742188 L 353.953125 877.929688 C 352.695312 879.175781 351.335938 880.527344 350.011719 881.835938 Z M 358.863281 873.03125 C 358.4375 873.46875 357.714844 874.1875 356.804688 875.09375 L 331.421875 849.917969 C 331.703125 849.640625 331.988281 849.367188 332.269531 849.085938 C 333.410156 847.972656 334.429688 846.96875 335.371094 846.023438 L 360.691406 871.132812 C 359.957031 871.875 359.347656 872.535156 358.863281 873.03125 Z M 395.578125 834.753906 C 393.964844 840.09375 391.957031 846.734375 391.988281 853.167969 C 391.996094 856.082031 392.417969 858.691406 393.183594 860.972656 C 387.582031 860.882812 381.867188 860.820312 377.109375 861.617188 C 371.371094 862.582031 366.867188 865.566406 363.628906 868.363281 L 338.144531 843.089844 C 341.375 839.425781 343.117188 836.339844 344.585938 831.164062 C 345.992188 826.210938 345.664062 819.703125 345.226562 813.972656 C 348.742188 814.722656 352.933594 814.738281 357.847656 813.550781 C 366.925781 811.355469 374.9375 808.691406 381.375 806.550781 C 383.359375 805.894531 385.230469 805.269531 387.042969 804.6875 C 395.140625 802.097656 398.175781 801.394531 400.449219 803.65625 C 403.484375 806.683594 402.683594 809.9375 400.742188 816.410156 L 400.695312 816.566406 C 399.226562 821.457031 398.078125 825.582031 396.964844 829.929688 C 396.601562 831.371094 396.101562 833.015625 395.578125 834.753906 Z M 415.214844 857.636719 C 412.535156 860.261719 407.140625 860.902344 400.863281 861.003906 C 399.179688 858.519531 398.910156 855.015625 398.902344 853.132812 C 398.878906 847.738281 400.644531 841.902344 402.199219 836.75 C 402.746094 834.933594 403.265625 833.214844 403.667969 831.628906 C 404.753906 827.378906 405.875 823.34375 407.316406 818.550781 L 407.363281 818.394531 C 409.363281 811.730469 411.433594 804.832031 405.328125 798.742188 C 399.882812 793.308594 392.953125 795.523438 384.898438 798.101562 C 383.105469 798.671875 381.203125 799.308594 379.191406 799.976562 C 372.550781 802.183594 365.023438 804.6875 356.222656 806.816406 C 351.230469 808.019531 347.492188 807.675781 344.714844 806.675781 C 344.703125 806.347656 344.683594 806.019531 344.679688 805.707031 C 344.621094 802.546875 343.96875 794.046875 350.355469 787.601562 C 351.308594 786.636719 352.828125 785.121094 354.691406 783.277344 L 366.632812 795.191406 C 367.023438 795.582031 367.542969 795.777344 368.054688 795.777344 C 368.570312 795.777344 369.085938 795.582031 369.484375 795.183594 C 370.273438 794.394531 370.269531 793.121094 369.484375 792.328125 L 357.558594 780.425781 C 358.515625 779.480469 359.519531 778.488281 360.546875 777.46875 L 372.460938 789.359375 C 372.851562 789.753906 373.371094 789.949219 373.882812 789.949219 C 374.394531 789.949219 374.914062 789.753906 375.3125 789.355469 C 376.101562 788.5625 376.097656 787.289062 375.3125 786.5 L 363.417969 774.632812 C 364.390625 773.667969 365.375 772.699219 366.34375 771.742188 L 378.222656 783.597656 C 378.613281 783.992188 379.132812 784.1875 379.648438 784.1875 C 380.160156 784.1875 380.679688 783.992188 381.074219 783.59375 C 381.867188 782.804688 381.859375 781.527344 381.074219 780.738281 L 369.21875 768.90625 C 374.757812 763.445312 379.285156 758.988281 379.285156 758.988281 L 446.535156 826.261719 C 446.535156 826.261719 421.945312 851.046875 415.226562 857.625 Z M 462.734375 822.621094 L 459.652344 825.707031 C 457.808594 827.554688 454.820312 827.554688 452.984375 825.707031 L 380.054688 752.742188 C 378.210938 750.894531 378.210938 747.910156 380.054688 746.070312 L 383.140625 742.984375 C 384.984375 741.140625 387.96875 741.140625 389.808594 742.984375 L 462.734375 815.949219 C 464.578125 817.796875 464.578125 820.78125 462.734375 822.621094 Z M 484.332031 764.597656 L 451.148438 798.304688 L 440.65625 787.964844 L 473.835938 754.257812 C 476.6875 751.359375 481.351562 751.324219 484.25 754.175781 C 487.148438 757.03125 487.183594 761.695312 484.332031 764.597656 Z M 484.332031 764.597656 " fill-opacity="1" fill-rule="nonzero"/><g transform="matrix(1, 0, 0, 1, 578, 648)"><g clip-path="url(#6d3b110501)"><g fill="#000000" fill-opacity="1"><g transform="translate(0.905051, 260.120145)"><g><path d="M 135.859375 -6.296875 C 135.859375 -4.328125 135.1875 -2.785156 133.84375 -1.671875 C 132.5 -0.554688 130.398438 0 127.546875 0 L 62.4375 0 C 59.570312 0 57.46875 -0.554688 56.125 -1.671875 C 54.789062 -2.785156 54.125 -4.328125 54.125 -6.296875 C 54.125 -9.773438 56.046875 -12.097656 59.890625 -13.265625 L 67.53125 -15 C 71.988281 -16.25 74.21875 -18.84375 74.21875 -22.78125 L 74.21875 -64.578125 L 22.640625 -164.25 C 21.117188 -167.289062 19.753906 -169.390625 18.546875 -170.546875 C 17.347656 -171.710938 15.765625 -172.609375 13.796875 -173.234375 L 9.640625 -174.578125 C 7.679688 -175.285156 6.253906 -176.21875 5.359375 -177.375 C 4.460938 -178.539062 4.015625 -179.835938 4.015625 -181.265625 C 4.015625 -183.234375 4.726562 -184.773438 6.15625 -185.890625 C 7.59375 -187.003906 9.738281 -187.5625 12.59375 -187.5625 L 76.765625 -187.5625 C 79.628906 -187.5625 81.796875 -187.003906 83.265625 -185.890625 C 84.742188 -184.773438 85.484375 -183.234375 85.484375 -181.265625 C 85.484375 -177.785156 83.289062 -175.460938 78.90625 -174.296875 L 72.484375 -173.09375 C 69.179688 -172.207031 67.21875 -171.023438 66.59375 -169.546875 C 65.96875 -168.078125 66.367188 -165.734375 67.796875 -162.515625 L 106.375 -82.53125 L 143.75 -157.15625 C 145.625 -161.082031 146.113281 -164.429688 145.21875 -167.203125 C 144.332031 -169.972656 141.789062 -171.984375 137.59375 -173.234375 L 130.625 -174.703125 C 129.195312 -175.148438 127.988281 -175.929688 127 -177.046875 C 126.019531 -178.160156 125.53125 -179.566406 125.53125 -181.265625 C 125.53125 -183.234375 126.242188 -184.773438 127.671875 -185.890625 C 129.109375 -187.003906 131.207031 -187.5625 133.96875 -187.5625 L 174.4375 -187.5625 C 177.289062 -187.5625 179.410156 -187.003906 180.796875 -185.890625 C 182.179688 -184.773438 182.875 -183.234375 182.875 -181.265625 C 182.875 -179.753906 182.492188 -178.503906 181.734375 -177.515625 C 180.972656 -176.535156 179.566406 -175.597656 177.515625 -174.703125 L 175.515625 -173.90625 C 173.722656 -173.1875 172.085938 -172.222656 170.609375 -171.015625 C 169.140625 -169.816406 167.625 -168.054688 166.0625 -165.734375 C 164.5 -163.410156 162.644531 -160.101562 160.5 -155.8125 L 115.75 -66.71875 L 115.75 -22.78125 C 115.75 -18.84375 117.984375 -16.25 122.453125 -15 L 130.09375 -13.265625 C 133.9375 -12.097656 135.859375 -9.773438 135.859375 -6.296875 Z M 135.859375 -6.296875 "/></g></g></g><g fill="#000000" fill-opacity="1"><g transform="translate(170.512419, 260.120145)"><g><path d="M 134.109375 -79.453125 C 134.109375 -74.628906 132.722656 -70.898438 129.953125 -68.265625 C 127.179688 -65.628906 123.164062 -64.3125 117.90625 -64.3125 L 44.34375 -64.3125 C 45.945312 -50.46875 50.65625 -40.0625 58.46875 -33.09375 C 66.289062 -26.125 76.234375 -22.640625 88.296875 -22.640625 C 96.148438 -22.640625 103.066406 -24.203125 109.046875 -27.328125 C 115.035156 -30.453125 119.679688 -34.875 122.984375 -40.59375 C 124.597656 -42.382812 125.894531 -43.59375 126.875 -44.21875 C 127.851562 -44.84375 128.835938 -45.15625 129.828125 -45.15625 C 131.335938 -45.15625 132.40625 -44.503906 133.03125 -43.203125 C 133.65625 -41.910156 133.925781 -40.328125 133.84375 -38.453125 C 133.570312 -32.828125 131.984375 -27.488281 129.078125 -22.4375 C 126.179688 -17.394531 122.164062 -12.929688 117.03125 -9.046875 C 111.894531 -5.160156 105.882812 -2.125 99 0.0625 C 92.125 2.25 84.535156 3.34375 76.234375 3.34375 C 66.492188 3.34375 57.5625 1.828125 49.4375 -1.203125 C 41.3125 -4.242188 34.253906 -8.578125 28.265625 -14.203125 C 22.285156 -19.828125 17.664062 -26.566406 14.40625 -34.421875 C 11.144531 -42.285156 9.515625 -51.039062 9.515625 -60.6875 C 9.515625 -70.875 11.050781 -80.207031 14.125 -88.6875 C 17.207031 -97.175781 21.695312 -104.523438 27.59375 -110.734375 C 33.488281 -116.941406 40.613281 -121.738281 48.96875 -125.125 C 57.320312 -128.519531 66.765625 -130.21875 77.296875 -130.21875 C 89.265625 -130.21875 99.492188 -128.050781 107.984375 -123.71875 C 116.472656 -119.394531 122.945312 -113.4375 127.40625 -105.84375 C 131.875 -98.25 134.109375 -89.453125 134.109375 -79.453125 Z M 72.34375 -116.6875 C 66.8125 -116.6875 61.878906 -115.007812 57.546875 -111.65625 C 53.210938 -108.3125 49.835938 -103.515625 47.421875 -97.265625 C 45.015625 -91.015625 43.8125 -83.515625 43.8125 -74.765625 L 89.09375 -74.765625 C 93.738281 -74.765625 96.0625 -76.863281 96.0625 -81.0625 C 96.0625 -92.757812 93.914062 -101.617188 89.625 -107.640625 C 85.34375 -113.671875 79.582031 -116.6875 72.34375 -116.6875 Z M 72.34375 -116.6875 "/></g></g></g><g fill="#000000" fill-opacity="1"><g transform="translate(313.995991, 260.120145)"><g><path d="M 11.65625 -28.140625 C 11.65625 -35.546875 13.910156 -42.0625 18.421875 -47.6875 C 22.929688 -53.320312 29.425781 -57.703125 37.90625 -60.828125 C 46.394531 -63.953125 56.625 -65.515625 68.59375 -65.515625 C 72.707031 -65.515625 76.523438 -65.269531 80.046875 -64.78125 C 83.578125 -64.289062 86.816406 -63.597656 89.765625 -62.703125 L 89.765625 -100.34375 C 89.765625 -106.6875 88.15625 -111.578125 84.9375 -115.015625 C 81.726562 -118.453125 77.21875 -120.171875 71.40625 -120.171875 C 66.132812 -120.171875 62.070312 -119.03125 59.21875 -116.75 C 56.363281 -114.476562 54.9375 -111.734375 54.9375 -108.515625 L 54.9375 -96.734375 C 54.9375 -91.285156 53.125 -87.109375 49.5 -84.203125 C 45.882812 -81.296875 40.816406 -79.84375 34.296875 -79.84375 C 28.671875 -79.84375 24.425781 -81.160156 21.5625 -83.796875 C 18.707031 -86.429688 17.28125 -90.070312 17.28125 -94.71875 C 17.28125 -98.914062 18.597656 -103.113281 21.234375 -107.3125 C 23.867188 -111.507812 27.753906 -115.328125 32.890625 -118.765625 C 38.023438 -122.203125 44.410156 -124.945312 52.046875 -127 C 59.679688 -129.0625 68.457031 -130.09375 78.375 -130.09375 C 94.894531 -130.09375 107.148438 -126.765625 115.140625 -120.109375 C 123.140625 -113.453125 127.140625 -104.453125 127.140625 -93.109375 L 127.140625 -23.453125 C 127.140625 -18.441406 129.101562 -15.9375 133.03125 -15.9375 C 135.09375 -15.9375 136.59375 -16.40625 137.53125 -17.34375 C 138.46875 -18.28125 139.289062 -19.195312 140 -20.09375 C 140.445312 -20.71875 140.960938 -21.253906 141.546875 -21.703125 C 142.128906 -22.148438 142.820312 -22.375 143.625 -22.375 C 144.695312 -22.375 145.5 -21.945312 146.03125 -21.09375 C 146.570312 -20.25 146.84375 -19.15625 146.84375 -17.8125 C 146.84375 -14.78125 145.789062 -11.632812 143.6875 -8.375 C 141.59375 -5.113281 138.445312 -2.34375 134.25 -0.0625 C 130.050781 2.207031 124.867188 3.34375 118.703125 3.34375 C 111.648438 3.34375 105.820312 1.914062 101.21875 -0.9375 C 96.613281 -3.789062 93.78125 -7.765625 92.71875 -12.859375 C 87.53125 -7.679688 81.296875 -3.6875 74.015625 -0.875 C 66.742188 1.9375 59.128906 3.34375 51.171875 3.34375 C 43.398438 3.34375 36.546875 2.023438 30.609375 -0.609375 C 24.671875 -3.242188 20.023438 -6.925781 16.671875 -11.65625 C 13.328125 -16.382812 11.65625 -21.878906 11.65625 -28.140625 Z M 50.234375 -34.4375 C 50.234375 -27.738281 52.019531 -22.625 55.59375 -19.09375 C 59.164062 -15.5625 63.769531 -13.796875 69.40625 -13.796875 C 73.0625 -13.796875 76.65625 -14.460938 80.1875 -15.796875 C 83.71875 -17.140625 86.910156 -18.972656 89.765625 -21.296875 L 89.765625 -52.921875 C 87.265625 -53.898438 84.71875 -54.632812 82.125 -55.125 C 79.539062 -55.625 76.816406 -55.875 73.953125 -55.875 C 66.535156 -55.875 60.726562 -53.972656 56.53125 -50.171875 C 52.332031 -46.378906 50.234375 -41.132812 50.234375 -34.4375 Z M 50.234375 -34.4375 "/></g></g></g><g fill="#000000" fill-opacity="1"><g transform="translate(464.981975, 260.120145)"><g><path d="M 61.359375 -120.84375 L 62.828125 -99.953125 C 66.222656 -110.035156 71.113281 -117.597656 77.5 -122.640625 C 83.882812 -127.691406 90.742188 -130.21875 98.078125 -130.21875 C 106.648438 -130.21875 113.253906 -127.804688 117.890625 -122.984375 C 122.535156 -118.160156 124.859375 -111.195312 124.859375 -102.09375 C 124.859375 -94.050781 123.207031 -88.039062 119.90625 -84.0625 C 116.601562 -80.09375 112.316406 -78.109375 107.046875 -78.109375 C 101.691406 -78.109375 97.601562 -79.535156 94.78125 -82.390625 C 91.96875 -85.253906 90.5625 -89.226562 90.5625 -94.3125 L 90.5625 -99.28125 C 90.5625 -104.8125 87.882812 -107.578125 82.53125 -107.578125 C 79.3125 -107.578125 76.25 -106.304688 73.34375 -103.765625 C 70.445312 -101.222656 68.082031 -97.316406 66.25 -92.046875 C 64.414062 -86.773438 63.5 -80.03125 63.5 -71.8125 L 63.5 -21.84375 C 63.5 -19.34375 64.015625 -17.460938 65.046875 -16.203125 C 66.078125 -14.953125 67.972656 -14.109375 70.734375 -13.671875 L 82.125 -11.921875 C 86.320312 -11.117188 88.421875 -9.066406 88.421875 -5.765625 C 88.421875 -1.921875 85.875 0 80.78125 0 L 18.21875 0 C 13.21875 0 10.71875 -1.875 10.71875 -5.625 C 10.71875 -8.300781 12.367188 -10.265625 15.671875 -11.515625 L 20.90625 -12.859375 C 22.601562 -13.398438 23.828125 -14.316406 24.578125 -15.609375 C 25.335938 -16.898438 25.71875 -18.976562 25.71875 -21.84375 L 25.71875 -97.796875 C 25.71875 -100.117188 25.359375 -101.769531 24.640625 -102.75 C 23.929688 -103.738281 22.816406 -104.367188 21.296875 -104.640625 L 14.203125 -105.171875 C 11.160156 -105.972656 9.640625 -107.625 9.640625 -110.125 C 9.640625 -111.644531 10.085938 -112.875 10.984375 -113.8125 C 11.878906 -114.75 13.53125 -115.664062 15.9375 -116.5625 L 39.921875 -125.40625 C 44.390625 -127.1875 47.671875 -128.320312 49.765625 -128.8125 C 51.867188 -129.3125 53.546875 -129.5625 54.796875 -129.5625 C 56.765625 -129.5625 58.257812 -128.890625 59.28125 -127.546875 C 60.3125 -126.203125 61.003906 -123.96875 61.359375 -120.84375 Z M 61.359375 -120.84375 "/></g></g></g><g fill="#000000" fill-opacity="1"><g transform="translate(593.862649, 260.120145)"><g/></g></g><g fill="#000000" fill-opacity="1"><g transform="translate(652.542224, 260.120145)"><g><path d="M 159.03125 -80.25 L 154.203125 -159.4375 C 153.941406 -163.363281 153.003906 -166.351562 151.390625 -168.40625 C 149.785156 -170.457031 147.148438 -171.890625 143.484375 -172.703125 L 137.328125 -174.03125 C 134.460938 -174.75 132.492188 -175.664062 131.421875 -176.78125 C 130.359375 -177.894531 129.828125 -179.390625 129.828125 -181.265625 C 129.828125 -183.140625 130.515625 -184.65625 131.890625 -185.8125 C 133.273438 -186.976562 135.222656 -187.5625 137.734375 -187.5625 L 186.09375 -187.5625 C 188.6875 -187.5625 190.671875 -186.976562 192.046875 -185.8125 C 193.429688 -184.65625 194.125 -183.140625 194.125 -181.265625 C 194.125 -179.390625 193.519531 -177.894531 192.3125 -176.78125 C 191.113281 -175.664062 189.175781 -174.75 186.5 -174.03125 L 180.59375 -172.828125 C 176.21875 -171.671875 173.269531 -169.929688 171.75 -167.609375 C 170.238281 -165.285156 169.613281 -162.25 169.875 -158.5 L 174.84375 -80.390625 C 175.195312 -75.828125 175.484375 -71.359375 175.703125 -66.984375 C 175.929688 -62.609375 176.085938 -58.054688 176.171875 -53.328125 C 176.441406 -42.160156 173.941406 -32.195312 168.671875 -23.4375 C 163.398438 -14.6875 155.382812 -7.785156 144.625 -2.734375 C 133.863281 2.304688 120.3125 4.828125 103.96875 4.828125 C 87 4.828125 72.796875 2.460938 61.359375 -2.265625 C 49.929688 -7.003906 41.378906 -13.726562 35.703125 -22.4375 C 30.035156 -31.144531 27.289062 -41.347656 27.46875 -53.046875 C 27.550781 -56.179688 27.75 -60.535156 28.0625 -66.109375 C 28.375 -71.691406 28.753906 -78.414062 29.203125 -86.28125 L 33.625 -163.984375 C 33.800781 -166.578125 33.242188 -168.519531 31.953125 -169.8125 C 30.660156 -171.113281 28.40625 -172.078125 25.1875 -172.703125 L 18.484375 -174.03125 C 13.484375 -175.101562 10.984375 -177.472656 10.984375 -181.140625 C 10.984375 -183.097656 11.675781 -184.65625 13.0625 -185.8125 C 14.445312 -186.976562 16.4375 -187.5625 19.03125 -187.5625 L 89.625 -187.5625 C 92.21875 -187.5625 94.207031 -186.976562 95.59375 -185.8125 C 96.976562 -184.65625 97.671875 -183.097656 97.671875 -181.140625 C 97.671875 -179.265625 97.085938 -177.765625 95.921875 -176.640625 C 94.765625 -175.523438 92.800781 -174.65625 90.03125 -174.03125 L 83.203125 -172.703125 C 80.609375 -172.253906 78.707031 -171.378906 77.5 -170.078125 C 76.300781 -168.785156 75.609375 -166.84375 75.421875 -164.25 L 71 -86.28125 C 70.644531 -80.113281 70.398438 -74.503906 70.265625 -69.453125 C 70.128906 -64.410156 69.972656 -59.925781 69.796875 -56 C 69.617188 -40.632812 73.414062 -29.289062 81.1875 -21.96875 C 88.957031 -14.644531 99.722656 -10.984375 113.484375 -10.984375 C 123.304688 -10.984375 131.722656 -12.679688 138.734375 -16.078125 C 145.742188 -19.472656 151.101562 -24.363281 154.8125 -30.75 C 158.519531 -37.132812 160.285156 -44.703125 160.109375 -53.453125 C 160.015625 -59.703125 159.851562 -64.859375 159.625 -68.921875 C 159.40625 -72.992188 159.207031 -76.769531 159.03125 -80.25 Z M 159.03125 -80.25 "/></g></g></g><g fill="#000000" fill-opacity="1"><g transform="translate(854.303407, 260.120145)"><g><path d="M 63.5 -120.84375 L 63.5 -106.640625 C 73.59375 -115.398438 82.476562 -121.519531 90.15625 -125 C 97.84375 -128.476562 105.125 -130.21875 112 -130.21875 C 119.769531 -130.21875 126.535156 -128.539062 132.296875 -125.1875 C 138.054688 -121.84375 142.546875 -117.132812 145.765625 -111.0625 C 148.984375 -104.988281 150.59375 -97.800781 150.59375 -89.5 L 150.59375 -22.234375 C 150.59375 -19.203125 151.015625 -17.015625 151.859375 -15.671875 C 152.710938 -14.335938 153.988281 -13.398438 155.6875 -12.859375 L 160.375 -11.515625 C 163.757812 -10.265625 165.453125 -8.300781 165.453125 -5.625 C 165.453125 -1.875 162.953125 0 157.953125 0 L 106.25 0 C 101.15625 0 98.609375 -2.007812 98.609375 -6.03125 C 98.609375 -8.53125 99.992188 -10.359375 102.765625 -11.515625 L 107.84375 -12.859375 C 109.632812 -13.484375 110.910156 -14.460938 111.671875 -15.796875 C 112.429688 -17.140625 112.8125 -19.285156 112.8125 -22.234375 L 112.8125 -84 C 112.8125 -91.863281 110.890625 -97.738281 107.046875 -101.625 C 103.203125 -105.507812 98.066406 -107.453125 91.640625 -107.453125 C 87.617188 -107.453125 83.332031 -106.488281 78.78125 -104.5625 C 74.226562 -102.644531 69.582031 -99.675781 64.84375 -95.65625 L 63.5 -94.59375 L 63.5 -21.84375 C 63.5 -18.976562 63.898438 -16.921875 64.703125 -15.671875 C 65.515625 -14.421875 66.722656 -13.484375 68.328125 -12.859375 L 73.15625 -11.515625 C 76.007812 -10.359375 77.4375 -8.53125 77.4375 -6.03125 C 77.4375 -2.007812 74.890625 0 69.796875 0 L 18.21875 0 C 13.21875 0 10.71875 -1.875 10.71875 -5.625 C 10.71875 -8.300781 12.367188 -10.265625 15.671875 -11.515625 L 20.90625 -12.859375 C 22.601562 -13.398438 23.828125 -14.316406 24.578125 -15.609375 C 25.335938 -16.898438 25.71875 -18.976562 25.71875 -21.84375 L 25.71875 -98.078125 C 25.71875 -100.390625 25.359375 -102.035156 24.640625 -103.015625 C 23.929688 -104.003906 22.816406 -104.675781 21.296875 -105.03125 L 14.203125 -105.578125 C 11.160156 -106.203125 9.640625 -107.851562 9.640625 -110.53125 C 9.640625 -112.050781 10.0625 -113.253906 10.90625 -114.140625 C 11.757812 -115.035156 13.4375 -115.929688 15.9375 -116.828125 L 40.453125 -125.9375 C 43.847656 -127.1875 46.617188 -128.101562 48.765625 -128.6875 C 50.910156 -129.269531 52.921875 -129.5625 54.796875 -129.5625 C 57.648438 -129.5625 59.8125 -128.753906 61.28125 -127.140625 C 62.757812 -125.535156 63.5 -123.4375 63.5 -120.84375 Z M 63.5 -120.84375 "/></g></g></g><g fill="#000000" fill-opacity="1"><g transform="translate(1027.126861, 260.120145)"><g><path d="M 60.296875 -120.84375 L 60.296875 -110.53125 C 66.367188 -116.875 73.019531 -121.738281 80.25 -125.125 C 87.488281 -128.519531 95.257812 -130.21875 103.5625 -130.21875 C 111.507812 -130.21875 118.832031 -128.675781 125.53125 -125.59375 C 132.226562 -122.519531 138.054688 -118.144531 143.015625 -112.46875 C 147.972656 -106.800781 151.835938 -100.101562 154.609375 -92.375 C 157.378906 -84.644531 158.765625 -76.140625 158.765625 -66.859375 C 158.765625 -56.140625 157.109375 -46.46875 153.796875 -37.84375 C 150.492188 -29.226562 145.914062 -21.859375 140.0625 -15.734375 C 134.21875 -9.617188 127.382812 -4.910156 119.5625 -1.609375 C 111.75 1.691406 103.332031 3.34375 94.3125 3.34375 C 81.90625 3.34375 71.097656 -0.046875 61.890625 -6.828125 L 61.890625 40.59375 C 61.890625 43.445312 62.289062 45.519531 63.09375 46.8125 C 63.90625 48.113281 65.113281 48.988281 66.71875 49.4375 L 73.828125 50.90625 C 77.210938 52.070312 78.90625 54.039062 78.90625 56.8125 C 78.90625 60.5625 76.40625 62.4375 71.40625 62.4375 L 16.609375 62.4375 C 11.609375 62.4375 9.109375 60.5625 9.109375 56.8125 C 9.109375 54.125 10.757812 52.15625 14.0625 50.90625 L 19.296875 49.578125 C 20.992188 49.035156 22.21875 48.113281 22.96875 46.8125 C 23.726562 45.519531 24.109375 43.445312 24.109375 40.59375 L 24.109375 -98.078125 C 24.109375 -100.390625 23.75 -102.035156 23.03125 -103.015625 C 22.320312 -104.003906 21.207031 -104.675781 19.6875 -105.03125 L 12.59375 -105.578125 C 9.550781 -106.203125 8.03125 -107.851562 8.03125 -110.53125 C 8.03125 -112.050781 8.453125 -113.234375 9.296875 -114.078125 C 10.148438 -114.929688 11.828125 -115.847656 14.328125 -116.828125 L 37.25 -125.9375 C 40.644531 -127.28125 43.390625 -128.21875 45.484375 -128.75 C 47.585938 -129.289062 49.484375 -129.5625 51.171875 -129.5625 C 54.304688 -129.5625 56.609375 -128.753906 58.078125 -127.140625 C 59.554688 -125.535156 60.296875 -123.4375 60.296875 -120.84375 Z M 88.15625 -110.9375 C 78.414062 -110.9375 69.660156 -106.601562 61.890625 -97.9375 L 61.890625 -24.109375 C 69.304688 -16.160156 77.835938 -12.1875 87.484375 -12.1875 C 93.554688 -12.1875 99.003906 -13.992188 103.828125 -17.609375 C 108.648438 -21.234375 112.445312 -26.773438 115.21875 -34.234375 C 117.988281 -41.691406 119.375 -51.222656 119.375 -62.828125 C 119.375 -73.734375 118.007812 -82.734375 115.28125 -89.828125 C 112.5625 -96.929688 108.859375 -102.222656 104.171875 -105.703125 C 99.484375 -109.191406 94.144531 -110.9375 88.15625 -110.9375 Z M 88.15625 -110.9375 "/></g></g></g><g fill="#000000" fill-opacity="1"><g transform="translate(1195.395154, 260.120145)"><g><path d="M 63.5 -190.515625 L 63.5 -21.84375 C 63.5 -18.976562 63.898438 -16.898438 64.703125 -15.609375 C 65.515625 -14.316406 66.722656 -13.398438 68.328125 -12.859375 L 73.28125 -11.515625 C 76.769531 -10.359375 78.515625 -8.394531 78.515625 -5.625 C 78.515625 -1.875 75.96875 0 70.875 0 L 18.21875 0 C 13.21875 0 10.71875 -1.875 10.71875 -5.625 C 10.71875 -8.300781 12.367188 -10.265625 15.671875 -11.515625 L 20.90625 -12.859375 C 22.601562 -13.398438 23.828125 -14.316406 24.578125 -15.609375 C 25.335938 -16.898438 25.71875 -18.976562 25.71875 -21.84375 L 25.71875 -167.734375 C 25.71875 -170.054688 25.359375 -171.707031 24.640625 -172.6875 C 23.929688 -173.675781 22.816406 -174.304688 21.296875 -174.578125 L 14.203125 -175.109375 C 11.160156 -175.910156 9.640625 -177.5625 9.640625 -180.0625 C 9.640625 -181.582031 10.0625 -182.8125 10.90625 -183.75 C 11.757812 -184.6875 13.4375 -185.601562 15.9375 -186.5 L 40.453125 -195.609375 C 44.117188 -196.941406 47 -197.875 49.09375 -198.40625 C 51.195312 -198.945312 53.007812 -199.21875 54.53125 -199.21875 C 57.5625 -199.21875 59.8125 -198.414062 61.28125 -196.8125 C 62.757812 -195.207031 63.5 -193.109375 63.5 -190.515625 Z M 63.5 -190.515625 "/></g></g></g><g fill="#000000" fill-opacity="1"><g transform="translate(1281.40487, 260.120145)"><g><path d="M 22.234375 -37.375 L 22.234375 -98.078125 C 22.234375 -100.390625 21.875 -102.035156 21.15625 -103.015625 C 20.445312 -104.003906 19.332031 -104.632812 17.8125 -104.90625 L 10.71875 -105.4375 C 7.675781 -106.238281 6.15625 -107.890625 6.15625 -110.390625 C 6.15625 -111.910156 6.578125 -113.140625 7.421875 -114.078125 C 8.273438 -115.015625 9.953125 -115.929688 12.453125 -116.828125 L 36.984375 -125.9375 C 40.640625 -127.28125 43.515625 -128.21875 45.609375 -128.75 C 47.710938 -129.289062 49.523438 -129.5625 51.046875 -129.5625 C 54.078125 -129.5625 56.328125 -128.753906 57.796875 -127.140625 C 59.273438 -125.535156 60.015625 -123.4375 60.015625 -120.84375 L 60.015625 -43 C 60.015625 -35.144531 61.910156 -29.25 65.703125 -25.3125 C 69.503906 -21.382812 74.578125 -19.421875 80.921875 -19.421875 C 84.847656 -19.421875 89.066406 -20.378906 93.578125 -22.296875 C 98.085938 -24.222656 102.53125 -27.109375 106.90625 -30.953125 L 106.90625 -98.078125 C 106.90625 -100.390625 106.570312 -102.035156 105.90625 -103.015625 C 105.238281 -104.003906 104.097656 -104.632812 102.484375 -104.90625 L 95.53125 -105.4375 C 92.40625 -106.15625 90.84375 -107.804688 90.84375 -110.390625 C 90.84375 -111.910156 91.285156 -113.140625 92.171875 -114.078125 C 93.066406 -115.015625 94.722656 -115.929688 97.140625 -116.828125 L 121.78125 -125.9375 C 125.175781 -127.1875 127.945312 -128.101562 130.09375 -128.6875 C 132.238281 -129.269531 134.25 -129.5625 136.125 -129.5625 C 138.976562 -129.5625 141.140625 -128.753906 142.609375 -127.140625 C 144.085938 -125.535156 144.828125 -123.4375 144.828125 -120.84375 L 144.828125 -21.84375 C 144.828125 -18.976562 145.207031 -16.898438 145.96875 -15.609375 C 146.726562 -14.316406 147.957031 -13.398438 149.65625 -12.859375 L 154.609375 -11.515625 C 158.003906 -10.359375 159.703125 -8.394531 159.703125 -5.625 C 159.703125 -1.875 157.203125 0 152.203125 0 L 125.53125 0 C 120.625 0 116.492188 -1.828125 113.140625 -5.484375 C 109.796875 -9.148438 108.125 -13.882812 108.125 -19.6875 L 108.125 -19.828125 C 98.382812 -11.335938 89.71875 -5.351562 82.125 -1.875 C 74.53125 1.601562 67.34375 3.34375 60.5625 3.34375 C 52.875 3.34375 46.148438 1.671875 40.390625 -1.671875 C 34.628906 -5.023438 30.160156 -9.757812 26.984375 -15.875 C 23.816406 -21.988281 22.234375 -29.15625 22.234375 -37.375 Z M 22.234375 -37.375 "/></g></g></g><g fill="#000000" fill-opacity="1"><g transform="translate(1450.611039, 260.120145)"><g><path d="M 95.921875 -12.453125 C 109.328125 -10.671875 120.003906 -8.238281 127.953125 -5.15625 C 135.898438 -2.070312 141.59375 1.8125 145.03125 6.5 C 148.46875 11.1875 150.1875 16.925781 150.1875 23.71875 C 150.1875 31.84375 147.21875 39.078125 141.28125 45.421875 C 135.34375 51.765625 126.65625 56.722656 115.21875 60.296875 C 103.789062 63.867188 89.722656 65.65625 73.015625 65.65625 C 56.847656 65.65625 43.984375 64.378906 34.421875 61.828125 C 24.867188 59.285156 18.035156 55.734375 13.921875 51.171875 C 9.816406 46.617188 7.765625 41.441406 7.765625 35.640625 C 7.765625 31.617188 8.859375 27.820312 11.046875 24.25 C 13.234375 20.675781 16.847656 17.457031 21.890625 14.59375 C 26.941406 11.738281 33.710938 9.421875 42.203125 7.640625 C 35.859375 5.316406 31.59375 2.660156 29.40625 -0.328125 C 27.21875 -3.328125 26.125 -6.789062 26.125 -10.71875 C 26.125 -15.445312 27.773438 -19.820312 31.078125 -23.84375 C 34.390625 -27.863281 40.332031 -30.859375 48.90625 -32.828125 C 37.289062 -36.398438 28.265625 -42.160156 21.828125 -50.109375 C 15.398438 -58.054688 12.1875 -67.210938 12.1875 -77.578125 C 12.1875 -87.929688 14.890625 -97.035156 20.296875 -104.890625 C 25.703125 -112.753906 33.316406 -118.875 43.140625 -123.25 C 52.960938 -127.632812 64.441406 -129.828125 77.578125 -129.828125 C 82.484375 -129.828125 87.125 -129.488281 91.5 -128.8125 C 95.882812 -128.144531 99.992188 -127.1875 103.828125 -125.9375 C 108.117188 -134.957031 113.320312 -141.695312 119.4375 -146.15625 C 125.5625 -150.625 132.015625 -152.859375 138.796875 -152.859375 C 144.515625 -152.859375 149.160156 -151.296875 152.734375 -148.171875 C 156.304688 -145.046875 158.09375 -140.671875 158.09375 -135.046875 C 158.09375 -130.128906 156.882812 -126.175781 154.46875 -123.1875 C 152.0625 -120.195312 148.800781 -118.703125 144.6875 -118.703125 C 141.832031 -118.703125 139.597656 -119.347656 137.984375 -120.640625 C 136.378906 -121.941406 134.992188 -123.414062 133.828125 -125.0625 C 132.671875 -126.71875 131.351562 -128.191406 129.875 -129.484375 C 128.40625 -130.785156 126.378906 -131.4375 123.796875 -131.4375 C 121.554688 -131.4375 119.566406 -130.832031 117.828125 -129.625 C 116.085938 -128.414062 114.191406 -126.070312 112.140625 -122.59375 C 120.710938 -118.394531 127.34375 -112.722656 132.03125 -105.578125 C 136.71875 -98.429688 139.0625 -90.476562 139.0625 -81.71875 C 139.0625 -71.363281 136.359375 -62.253906 130.953125 -54.390625 C 125.554688 -46.535156 117.96875 -40.414062 108.1875 -36.03125 C 98.40625 -31.65625 86.953125 -29.46875 73.828125 -29.46875 C 71.316406 -29.46875 68.898438 -29.535156 66.578125 -29.671875 C 64.265625 -29.804688 61.988281 -30.050781 59.75 -30.40625 C 57.425781 -28.976562 56.265625 -27.148438 56.265625 -24.921875 C 56.265625 -23.941406 56.597656 -22.976562 57.265625 -22.03125 C 57.941406 -21.09375 59.53125 -20.15625 62.03125 -19.21875 C 64.53125 -18.28125 68.457031 -17.253906 73.8125 -16.140625 C 79.175781 -15.023438 86.546875 -13.796875 95.921875 -12.453125 Z M 70.875 -118.171875 C 63.375 -117.628906 57.992188 -114.078125 54.734375 -107.515625 C 51.472656 -100.953125 50.554688 -91.550781 51.984375 -79.3125 C 53.410156 -66.8125 56.601562 -57.273438 61.5625 -50.703125 C 66.519531 -44.140625 72.796875 -41.128906 80.390625 -41.671875 C 87.796875 -42.203125 93.148438 -45.75 96.453125 -52.3125 C 99.765625 -58.882812 100.707031 -68.285156 99.28125 -80.515625 C 97.851562 -93.023438 94.679688 -102.5625 89.765625 -109.125 C 84.847656 -115.6875 78.550781 -118.703125 70.875 -118.171875 Z M 36.703125 27.59375 C 36.703125 32.601562 38.085938 37.023438 40.859375 40.859375 C 43.628906 44.703125 48.117188 47.671875 54.328125 49.765625 C 60.535156 51.867188 68.863281 52.921875 79.3125 52.921875 C 92.882812 52.921875 102.53125 51.289062 108.25 48.03125 C 113.96875 44.769531 116.828125 40.191406 116.828125 34.296875 C 116.828125 31.078125 115.617188 28.328125 113.203125 26.046875 C 110.796875 23.773438 106.554688 21.722656 100.484375 19.890625 C 94.410156 18.066406 85.878906 16.347656 74.890625 14.734375 C 66.140625 13.578125 58.679688 12.238281 52.515625 10.71875 C 47.335938 12.144531 43.40625 14.398438 40.71875 17.484375 C 38.039062 20.566406 36.703125 23.9375 36.703125 27.59375 Z M 36.703125 27.59375 "/></g></g></g><g fill="#000000" fill-opacity="1"><g transform="translate(1605.884204, 260.120145)"><g><path d="M 95.921875 -12.453125 C 109.328125 -10.671875 120.003906 -8.238281 127.953125 -5.15625 C 135.898438 -2.070312 141.59375 1.8125 145.03125 6.5 C 148.46875 11.1875 150.1875 16.925781 150.1875 23.71875 C 150.1875 31.84375 147.21875 39.078125 141.28125 45.421875 C 135.34375 51.765625 126.65625 56.722656 115.21875 60.296875 C 103.789062 63.867188 89.722656 65.65625 73.015625 65.65625 C 56.847656 65.65625 43.984375 64.378906 34.421875 61.828125 C 24.867188 59.285156 18.035156 55.734375 13.921875 51.171875 C 9.816406 46.617188 7.765625 41.441406 7.765625 35.640625 C 7.765625 31.617188 8.859375 27.820312 11.046875 24.25 C 13.234375 20.675781 16.847656 17.457031 21.890625 14.59375 C 26.941406 11.738281 33.710938 9.421875 42.203125 7.640625 C 35.859375 5.316406 31.59375 2.660156 29.40625 -0.328125 C 27.21875 -3.328125 26.125 -6.789062 26.125 -10.71875 C 26.125 -15.445312 27.773438 -19.820312 31.078125 -23.84375 C 34.390625 -27.863281 40.332031 -30.859375 48.90625 -32.828125 C 37.289062 -36.398438 28.265625 -42.160156 21.828125 -50.109375 C 15.398438 -58.054688 12.1875 -67.210938 12.1875 -77.578125 C 12.1875 -87.929688 14.890625 -97.035156 20.296875 -104.890625 C 25.703125 -112.753906 33.316406 -118.875 43.140625 -123.25 C 52.960938 -127.632812 64.441406 -129.828125 77.578125 -129.828125 C 82.484375 -129.828125 87.125 -129.488281 91.5 -128.8125 C 95.882812 -128.144531 99.992188 -127.1875 103.828125 -125.9375 C 108.117188 -134.957031 113.320312 -141.695312 119.4375 -146.15625 C 125.5625 -150.625 132.015625 -152.859375 138.796875 -152.859375 C 144.515625 -152.859375 149.160156 -151.296875 152.734375 -148.171875 C 156.304688 -145.046875 158.09375 -140.671875 158.09375 -135.046875 C 158.09375 -130.128906 156.882812 -126.175781 154.46875 -123.1875 C 152.0625 -120.195312 148.800781 -118.703125 144.6875 -118.703125 C 141.832031 -118.703125 139.597656 -119.347656 137.984375 -120.640625 C 136.378906 -121.941406 134.992188 -123.414062 133.828125 -125.0625 C 132.671875 -126.71875 131.351562 -128.191406 129.875 -129.484375 C 128.40625 -130.785156 126.378906 -131.4375 123.796875 -131.4375 C 121.554688 -131.4375 119.566406 -130.832031 117.828125 -129.625 C 116.085938 -128.414062 114.191406 -126.070312 112.140625 -122.59375 C 120.710938 -118.394531 127.34375 -112.722656 132.03125 -105.578125 C 136.71875 -98.429688 139.0625 -90.476562 139.0625 -81.71875 C 139.0625 -71.363281 136.359375 -62.253906 130.953125 -54.390625 C 125.554688 -46.535156 117.96875 -40.414062 108.1875 -36.03125 C 98.40625 -31.65625 86.953125 -29.46875 73.828125 -29.46875 C 71.316406 -29.46875 68.898438 -29.535156 66.578125 -29.671875 C 64.265625 -29.804688 61.988281 -30.050781 59.75 -30.40625 C 57.425781 -28.976562 56.265625 -27.148438 56.265625 -24.921875 C 56.265625 -23.941406 56.597656 -22.976562 57.265625 -22.03125 C 57.941406 -21.09375 59.53125 -20.15625 62.03125 -19.21875 C 64.53125 -18.28125 68.457031 -17.253906 73.8125 -16.140625 C 79.175781 -15.023438 86.546875 -13.796875 95.921875 -12.453125 Z M 70.875 -118.171875 C 63.375 -117.628906 57.992188 -114.078125 54.734375 -107.515625 C 51.472656 -100.953125 50.554688 -91.550781 51.984375 -79.3125 C 53.410156 -66.8125 56.601562 -57.273438 61.5625 -50.703125 C 66.519531 -44.140625 72.796875 -41.128906 80.390625 -41.671875 C 87.796875 -42.203125 93.148438 -45.75 96.453125 -52.3125 C 99.765625 -58.882812 100.707031 -68.285156 99.28125 -80.515625 C 97.851562 -93.023438 94.679688 -102.5625 89.765625 -109.125 C 84.847656 -115.6875 78.550781 -118.703125 70.875 -118.171875 Z M 36.703125 27.59375 C 36.703125 32.601562 38.085938 37.023438 40.859375 40.859375 C 43.628906 44.703125 48.117188 47.671875 54.328125 49.765625 C 60.535156 51.867188 68.863281 52.921875 79.3125 52.921875 C 92.882812 52.921875 102.53125 51.289062 108.25 48.03125 C 113.96875 44.769531 116.828125 40.191406 116.828125 34.296875 C 116.828125 31.078125 115.617188 28.328125 113.203125 26.046875 C 110.796875 23.773438 106.554688 21.722656 100.484375 19.890625 C 94.410156 18.066406 85.878906 16.347656 74.890625 14.734375 C 66.140625 13.578125 58.679688 12.238281 52.515625 10.71875 C 47.335938 12.144531 43.40625 14.398438 40.71875 17.484375 C 38.039062 20.566406 36.703125 23.9375 36.703125 27.59375 Z M 36.703125 27.59375 "/></g></g></g><g fill="#000000" fill-opacity="1"><g transform="translate(1761.157188, 260.120145)"><g><path d="M 134.109375 -79.453125 C 134.109375 -74.628906 132.722656 -70.898438 129.953125 -68.265625 C 127.179688 -65.628906 123.164062 -64.3125 117.90625 -64.3125 L 44.34375 -64.3125 C 45.945312 -50.46875 50.65625 -40.0625 58.46875 -33.09375 C 66.289062 -26.125 76.234375 -22.640625 88.296875 -22.640625 C 96.148438 -22.640625 103.066406 -24.203125 109.046875 -27.328125 C 115.035156 -30.453125 119.679688 -34.875 122.984375 -40.59375 C 124.597656 -42.382812 125.894531 -43.59375 126.875 -44.21875 C 127.851562 -44.84375 128.835938 -45.15625 129.828125 -45.15625 C 131.335938 -45.15625 132.40625 -44.503906 133.03125 -43.203125 C 133.65625 -41.910156 133.925781 -40.328125 133.84375 -38.453125 C 133.570312 -32.828125 131.984375 -27.488281 129.078125 -22.4375 C 126.179688 -17.394531 122.164062 -12.929688 117.03125 -9.046875 C 111.894531 -5.160156 105.882812 -2.125 99 0.0625 C 92.125 2.25 84.535156 3.34375 76.234375 3.34375 C 66.492188 3.34375 57.5625 1.828125 49.4375 -1.203125 C 41.3125 -4.242188 34.253906 -8.578125 28.265625 -14.203125 C 22.285156 -19.828125 17.664062 -26.566406 14.40625 -34.421875 C 11.144531 -42.285156 9.515625 -51.039062 9.515625 -60.6875 C 9.515625 -70.875 11.050781 -80.207031 14.125 -88.6875 C 17.207031 -97.175781 21.695312 -104.523438 27.59375 -110.734375 C 33.488281 -116.941406 40.613281 -121.738281 48.96875 -125.125 C 57.320312 -128.519531 66.765625 -130.21875 77.296875 -130.21875 C 89.265625 -130.21875 99.492188 -128.050781 107.984375 -123.71875 C 116.472656 -119.394531 122.945312 -113.4375 127.40625 -105.84375 C 131.875 -98.25 134.109375 -89.453125 134.109375 -79.453125 Z M 72.34375 -116.6875 C 66.8125 -116.6875 61.878906 -115.007812 57.546875 -111.65625 C 53.210938 -108.3125 49.835938 -103.515625 47.421875 -97.265625 C 45.015625 -91.015625 43.8125 -83.515625 43.8125 -74.765625 L 89.09375 -74.765625 C 93.738281 -74.765625 96.0625 -76.863281 96.0625 -81.0625 C 96.0625 -92.757812 93.914062 -101.617188 89.625 -107.640625 C 85.34375 -113.671875 79.582031 -116.6875 72.34375 -116.6875 Z M 72.34375 -116.6875 "/></g></g></g><g fill="#000000" fill-opacity="1"><g transform="translate(1904.640809, 260.120145)"><g><path d="M 9.515625 -60.015625 C 9.515625 -70.734375 11.164062 -80.398438 14.46875 -89.015625 C 17.769531 -97.640625 22.367188 -105.03125 28.265625 -111.1875 C 34.160156 -117.351562 41.015625 -122.066406 48.828125 -125.328125 C 56.648438 -128.585938 65.070312 -130.21875 74.09375 -130.21875 C 86.6875 -130.21875 97.445312 -126.867188 106.375 -120.171875 L 106.375 -167.734375 C 106.375 -170.054688 106.015625 -171.707031 105.296875 -172.6875 C 104.585938 -173.675781 103.472656 -174.304688 101.953125 -174.578125 L 94.984375 -175.109375 C 91.859375 -175.816406 90.296875 -177.46875 90.296875 -180.0625 C 90.296875 -181.582031 90.742188 -182.8125 91.640625 -183.75 C 92.535156 -184.6875 94.1875 -185.601562 96.59375 -186.5 L 121.25 -195.609375 C 124.644531 -196.859375 127.390625 -197.769531 129.484375 -198.34375 C 131.585938 -198.925781 133.578125 -199.21875 135.453125 -199.21875 C 138.304688 -199.21875 140.492188 -198.414062 142.015625 -196.8125 C 143.535156 -195.207031 144.296875 -193.109375 144.296875 -190.515625 L 144.296875 -21.84375 C 144.296875 -18.976562 144.671875 -16.898438 145.421875 -15.609375 C 146.179688 -14.316406 147.367188 -13.398438 148.984375 -12.859375 L 154.078125 -11.515625 C 157.460938 -10.359375 159.15625 -8.394531 159.15625 -5.625 C 159.15625 -1.875 156.613281 0 151.53125 0 L 124.203125 0 C 119.460938 0 115.503906 -1.492188 112.328125 -4.484375 C 109.160156 -7.472656 107.578125 -11.289062 107.578125 -15.9375 C 101.597656 -9.78125 95.035156 -5.023438 87.890625 -1.671875 C 80.742188 1.671875 73.0625 3.34375 64.84375 3.34375 C 56.894531 3.34375 49.546875 1.804688 42.796875 -1.265625 C 36.054688 -4.347656 30.207031 -8.722656 25.25 -14.390625 C 20.289062 -20.066406 16.425781 -26.769531 13.65625 -34.5 C 10.894531 -42.226562 9.515625 -50.734375 9.515625 -60.015625 Z M 49.03125 -64.171875 C 49.03125 -53.273438 50.367188 -44.253906 53.046875 -37.109375 C 55.734375 -29.960938 59.441406 -24.644531 64.171875 -21.15625 C 68.910156 -17.675781 74.269531 -15.9375 80.25 -15.9375 C 89.988281 -15.9375 98.695312 -20.316406 106.375 -29.078125 L 106.375 -102.765625 C 102.71875 -106.867188 98.742188 -109.898438 94.453125 -111.859375 C 90.160156 -113.828125 85.648438 -114.8125 80.921875 -114.8125 C 74.847656 -114.8125 69.398438 -113.003906 64.578125 -109.390625 C 59.753906 -105.773438 55.957031 -100.238281 53.1875 -92.78125 C 50.414062 -85.320312 49.03125 -75.785156 49.03125 -64.171875 Z M 49.03125 -64.171875 "/></g></g></g></g></g></svg>