<!-- /public/yu-mark-solid.svg -->
<svg xmlns="http://www.w3.org/2000/svg" viewBox="0 0 64 64" role="img" aria-labelledby="title desc">
  <title id="title">Year Unplugged Mark (Solid)</title>
  <desc id="desc">Solid medallion with negative-space U and Y implied by fills; tuned for crisp small sizes.</desc>
  <!-- Base circle (ink) -->
  <circle cx="32" cy="32" r="28" fill="#1E1B16"/>
  <!-- Inner U bowl (cream) -->
  <path fill="#F6F1E8" d="M20 24v12c0 6.627 5.373 12 12 12s12-5.373 12-12V24h-6v12a6 6 0 1 1-12 0V24h-6z"/>
  <!-- Y shape (ink) for contrast inside the bowl -->
  <path fill="#1E1B16" d="M32 24v-6a2 2 0 1 0-4 0v8.586l-4.95-4.95a2 2 0 1 0-2.829 2.829L28 32v6a2 2 0 1 0 4 0v-6l7.778-7.778a2 2 0 1 0-2.828-2.829L32 26.586V24z"/>
</svg>